<svg xmlns="http://www.w3.org/2000/svg" viewBox="0 0 40 40">
  <defs/>
  <g fill="currentColor" fill-rule="evenodd">
    <path d="M26.996 38.215a5.855 5.855 0 005.102-2.927l3.528-6.053 3.476-6.12.113-.204A5.91 5.91 0 0040 19.994c0-1.027-.28-2.055-.812-2.97a5.845 5.845 0 00-5.101-2.934h-2.378l-2.203 3.812h4.58c1.084 0 1.625.726 1.807 1.039a2.014 2.014 0 01.14.291 2.033 2.033 0 01-.127 1.792l-.04.068-3.542 6.242-3.518 6.032c-.547.937-1.446 1.038-1.808 1.038-.365-.001-1.266-.104-1.81-1.045l-8.253-14.28H12.53l9.357 16.188a5.84 5.84 0 005.099 2.948l.01.588v-.588z"/>
    <path d="M7.847 10.975l1.12 1.939h4.402L11.145 9.06c-.562-.977-.138-1.846.006-2.09.124-.218.621-.958 1.635-1.032.07-.009.13-.009.172-.009h14.08c1.124 0 1.67.802 1.811 1.048.14.237.566 1.11-.001 2.09l-2.9 5.022h-.003l-2.88 4.989h-.004l-2.383 4.127 2.201 3.809 9.27-16.04c.526-.908.803-1.93.803-2.954a5.919 5.919 0 00-.8-2.95 5.842 5.842 0 00-5.114-2.953h-14.08A5.842 5.842 0 007.845 5.07a5.844 5.844 0 00.002 5.904"/>
    <path d="M17.16 36.506a5.94 5.94 0 00.945-1.232l.007-.014 1.207-2.087-2.2-3.806-2.308 3.991a2.264 2.264 0 01-.328.435l-.008.01c-.543.542-1.212.6-1.474.6-.328 0-1.148-.085-1.704-.875a1.351 1.351 0 01-.089-.136l-.029-.046-3.488-5.979-3.599-6.342c-.551-.978-.128-1.845.015-2.088.14-.24.689-1.035 1.804-1.035h16.475l2.2-3.812H5.912A5.846 5.846 0 00.81 17.024a5.845 5.845 0 00-.03 5.882l3.608 6.362c.737 1.263 1.332 2.288 1.816 3.123 2.031 3.498 2.081 3.576 2.7 4.183a5.862 5.862 0 004.098 1.641l.01.588-.001-.588a5.83 5.83 0 004.15-1.71"/>
  </g>
</svg>